<?xml version="1.0" encoding="utf-8"?>
<!-- Generator: Adobe Illustrator 28.0.0, SVG Export Plug-In . SVG Version: 6.00 Build 0)  -->
<svg version="1.1" id="Livello_1" xmlns="http://www.w3.org/2000/svg" xmlns:xlink="http://www.w3.org/1999/xlink" x="0px" y="0px"
	 viewBox="0 0 689 98.8" style="enable-background:new 0 0 689 98.8;" xml:space="preserve">
<style type="text/css">
	.st0{stroke:#000000;stroke-width:11.3417;stroke-linecap:round;stroke-linejoin:round;stroke-miterlimit:10;}
	.st1{fill:#FFFFFF;stroke:#000000;stroke-width:11;stroke-linecap:round;stroke-linejoin:round;stroke-miterlimit:10;}
	.st2{fill:#FFFFFF;stroke:#000000;stroke-width:10.103;stroke-linecap:round;stroke-linejoin:round;stroke-miterlimit:10;}
	.st3{fill:none;stroke:#000000;stroke-width:10;stroke-linecap:round;stroke-linejoin:round;stroke-miterlimit:10;}
	.st4{stroke:#000000;stroke-width:11.0213;stroke-linecap:round;stroke-linejoin:round;stroke-miterlimit:10;}
	.st5{fill:#FF0000;}
	.st6{fill:none;stroke:#000000;stroke-width:11;stroke-linecap:round;stroke-linejoin:round;stroke-miterlimit:10;}
	.st7{fill:#FFFFFF;}
	.st8{stroke:#000000;stroke-width:5.2666;stroke-linecap:round;stroke-linejoin:round;stroke-miterlimit:10;}
	.st9{fill:#FFFFFF;stroke:#000000;stroke-width:10.9252;stroke-linecap:round;stroke-linejoin:round;stroke-miterlimit:10;}
	.st10{fill:#FFFFFF;stroke:#000000;stroke-width:13.2663;stroke-linecap:round;stroke-linejoin:round;stroke-miterlimit:10;}
	.st11{fill:#FFFFFF;stroke:#000000;stroke-width:10.3286;stroke-linecap:round;stroke-linejoin:round;stroke-miterlimit:10;}
	.st12{fill:#FFFFFF;stroke:#000000;stroke-width:13.0451;stroke-linecap:round;stroke-linejoin:round;stroke-miterlimit:10;}
	.st13{fill:none;stroke:#000000;stroke-width:13.2663;stroke-linecap:round;stroke-linejoin:round;stroke-miterlimit:10;}
	.st14{stroke:#000000;stroke-width:6.3517;stroke-linecap:round;stroke-linejoin:round;stroke-miterlimit:10;}
	.st15{fill:#FFFFFF;stroke:#000000;stroke-width:13.1761;stroke-linecap:round;stroke-linejoin:round;stroke-miterlimit:10;}
	.st16{fill:#FFFFFF;stroke:#000000;stroke-width:10.6808;stroke-linecap:round;stroke-linejoin:round;stroke-miterlimit:10;}
	.st17{fill:none;stroke:#000000;stroke-width:8.9006;stroke-linecap:round;stroke-linejoin:round;stroke-miterlimit:10;}
	.st18{stroke:#000000;stroke-width:10.9731;stroke-linecap:round;stroke-linejoin:round;stroke-miterlimit:10;}
	.st19{fill:none;stroke:#000000;stroke-width:9;stroke-linecap:round;stroke-linejoin:round;stroke-miterlimit:10;}
	.st20{fill:#FFFFFF;stroke:#000000;stroke-width:10.2718;stroke-linecap:round;stroke-linejoin:round;stroke-miterlimit:10;}
	.st21{stroke:#000000;stroke-width:1.5966;stroke-miterlimit:10;}
	.st22{stroke:#000000;stroke-width:1.2331;stroke-miterlimit:10;}
	.st23{stroke:#000000;stroke-width:0.75;stroke-miterlimit:10;}
	.st24{stroke:#000000;stroke-width:0.8754;stroke-miterlimit:10;}
	.st25{fill:#1200FF;}
	.st26{stroke:#000000;stroke-width:2.0887;stroke-miterlimit:10;}
	.st27{stroke:#000000;stroke-width:1.7401;stroke-miterlimit:10;}
	.st28{fill:#020202;}
	.st29{stroke:#000000;stroke-width:1.2594;stroke-miterlimit:10;}
	.st30{stroke:#000000;stroke-width:1.2761;stroke-miterlimit:10;}
	.st31{clip-path:url(#SVGID_00000108999089875873787230000004918210068456222081_);}
	.st32{fill:#00009D;}
	.st33{fill:#8064ED;}
	.st34{fill:#81FF45;}
</style>
<g>
	<path d="M37.9,1.8H0v16h12.1v62H0v16h37.9c12.5,0,22.2-3.2,28.9-9.6C73.6,79.8,77,70.1,77,57.3V40.4c0-12.8-3.4-22.5-10.2-28.9
		C60.1,5.1,50.4,1.8,37.9,1.8z M59.4,39.9v17.8c0,7.3-1.7,12.9-5.2,16.5c-3.4,3.6-8.9,5.4-16.1,5.4h-8.3V18.2h8.3
		c7.3,0,12.7,1.8,16.2,5.3C57.7,27,59.4,32.5,59.4,39.9z"/>
	<polygon points="111.5,56.6 150.9,56.6 150.9,40.4 111.5,40.4 111.5,18 154.5,18 154.5,1.8 94,1.8 94,95.8 155.2,95.8 155.2,79.6 
		111.5,79.6 	"/>
	<polygon points="222.5,81.4 187.1,1.8 168.7,1.8 211.5,95.8 238.4,95.8 247.8,1.8 229.8,1.8 	"/>
	<path d="M318,5.4c-4.6-2.3-10-3.5-15.8-3.5H264V97h17.7V61.8h20.4c5.8,0,11-1.2,15.6-3.5c4.6-2.3,8.4-5.7,11.1-10.1
		c2.7-4.4,4.1-9.6,4.1-15.6V31c0-6-1.3-11.2-4-15.5C326.4,11.1,322.7,7.7,318,5.4z M281.7,18.3h19c4.5,0,8.1,1.2,10.7,3.5
		c2.6,2.3,3.8,5.4,3.8,9.5v1.3c0,4-1.3,7.1-3.8,9.4c-2.6,2.3-6.2,3.5-10.7,3.5h-19V18.3z"/>
	<path d="M400.6,64.2c0,5.9-1.6,10.5-4.8,13.6c-3.2,3.1-7.9,4.7-14,4.7c-6.1,0-10.8-1.6-14-4.7c-3.2-3.1-4.8-7.7-4.8-13.6V1.8H345
		v62c0,7.4,1.5,13.7,4.5,18.9c3,5.2,7.3,9.3,12.8,12c5.4,2.7,12,4.1,19.5,4.1c7.4,0,13.9-1.4,19.4-4.1c5.5-2.8,9.8-6.8,12.8-12
		c2.9-5.2,4.4-11.5,4.4-18.9v-62h-17.7V64.2z"/>
	<polygon points="488.4,84 487.3,84 475.5,1.8 443.7,1.8 428.5,97 446.2,97 459.3,14.7 459.8,14.7 471.6,97 503.9,97 519.1,1.8 
		501.4,1.8 	"/>
	<polygon points="608.8,1.8 585.4,1.8 551.8,39.3 551.8,1.8 534.1,1.8 534.1,97 551.8,97 551.8,58.7 586.3,97 610.2,97 565.8,48.8 	
		"/>
	<path d="M684.7,55c-2.8-3.7-6.6-6.7-11.4-8.9c-4.6-2.1-10-3.8-16-5.1l-4.9-1.2c-3.8-0.8-7-1.8-9.5-2.9c-2.3-1-4.1-2.3-5.2-3.8
		c-1.1-1.5-1.7-3.4-1.7-5.8c0-3.5,1.3-6.2,3.9-8.2c2.8-2.1,6.8-3.1,11.9-3.1c3.6,0,6.8,0.5,9.4,1.6c2.5,1,4.5,2.5,5.9,4.7
		c1.4,2.1,2.1,5,2.1,8.6v6.5h17.6v-6.5c0-6.8-1.6-12.5-4.6-17.1c-3.1-4.5-7.3-8-12.6-10.3C664.4,1.2,658.5,0,651.9,0
		c-6.6,0-12.4,1.1-17.3,3.3c-5,2.2-9,5.4-11.8,9.5c-2.9,4.1-4.3,9.1-4.3,14.9c0,5.7,1.3,10.4,3.9,14.1c2.5,3.7,6.1,6.6,10.7,8.8
		c4.4,2.1,9.7,3.9,15.6,5.3l4.8,1.2c3.9,0.9,7.3,2,10.1,3c2.6,1,4.6,2.3,5.9,3.9c1.3,1.5,1.9,3.4,1.9,5.9c0,3.8-1.4,6.9-4.3,9.3
		c-3,2.5-7.6,3.7-13.6,3.7c-6,0-10.8-1.5-14.3-4.4c-3.5-2.9-5.2-7.2-5.2-13.1v-5.1h-17.6v5.1c0,7.1,1.6,13.3,4.8,18.3
		c3.2,5,7.6,8.9,13.3,11.5c5.5,2.5,11.9,3.8,19.1,3.8c7.1,0,13.4-1.2,18.7-3.6c5.3-2.4,9.5-5.9,12.5-10.2c2.9-4.4,4.4-9.6,4.4-15.4
		C689,63.7,687.6,58.8,684.7,55z"/>
</g>
</svg>
